#N canvas -8 -8 1920 1037 12;
#X obj 387 301 select 0 1 2 3 4 5 6 7 8;
#X floatatom 369 459 5 0 0 0 - - -;
#X obj 374 617 *~;
#X obj 431 380 + 0;
#X obj 489 523 vline~;
#X floatatom 533 443 5 0 0 0 - - -;
#X obj 533 390 loadbang;
#X obj 329 537 osc~;
#X obj 404 540 osc~;
#X obj 404 500 * 1.5;
#X obj 365 662 throw~ $output;
#X obj 406 266 hradio 15 1 0 8 empty empty empty 0 -8 0 10 -262144
-1 -1 1;
#X obj 422 191 f;
#X obj 487 190 + 1;
#X obj 444 229 mod 8;
#X obj 422 110 tgl 15 0 empty empty empty 17 7 0 10 -262144 -1 -1 0
1;
#X msg 489 472 0.2 4000 \, 0 4000 500;
#X obj 652 464 vsl 15 128 1 100 0 0 empty empty empty 0 -9 0 10 -262144
-1 -1 0 1;
#X floatatom 553 595 5 0 0 0 - - -;
#X obj 524 632 /~ 1;
#X text 688 490 Volume Control Higher = Quieter;
#X obj 369 421 mtof;
#X msg 533 417 60;
#X msg 316 342 -5;
#X msg 397 344 -3;
#X obj 422 154 metro 2500;
#X msg 479 344 -5;
#X msg 353 342 -2;
#X msg 517 342 -1;
#X msg 597 341 -1;
#X msg 556 344 -2;
#X msg 441 344 -2;
#X text 511 103 Background ambience music to add to the current background
music \, this tempo stays the same throughout the game;
#X connect 0 0 23 0;
#X connect 0 1 27 0;
#X connect 0 2 24 0;
#X connect 0 3 31 0;
#X connect 0 4 26 0;
#X connect 0 5 28 0;
#X connect 0 6 30 0;
#X connect 0 7 29 0;
#X connect 0 8 23 0;
#X connect 1 0 7 0;
#X connect 1 0 9 0;
#X connect 2 0 10 0;
#X connect 2 0 19 0;
#X connect 3 0 16 0;
#X connect 3 0 21 0;
#X connect 4 0 2 1;
#X connect 5 0 3 1;
#X connect 6 0 22 0;
#X connect 7 0 2 0;
#X connect 8 0 2 0;
#X connect 9 0 8 0;
#X connect 11 0 0 0;
#X connect 12 0 13 0;
#X connect 12 0 14 0;
#X connect 13 0 12 1;
#X connect 14 0 11 0;
#X connect 15 0 25 0;
#X connect 16 0 4 0;
#X connect 17 0 18 0;
#X connect 18 0 19 1;
#X connect 21 0 1 0;
#X connect 22 0 5 0;
#X connect 23 0 3 0;
#X connect 24 0 3 0;
#X connect 25 0 12 0;
#X connect 26 0 3 0;
#X connect 27 0 3 0;
#X connect 28 0 3 0;
#X connect 29 0 3 0;
#X connect 30 0 3 0;
#X connect 31 0 3 0;
