#N canvas 3648 343 1920 997 10;
#X text 177 277 creation arguments are OSC address;
#X text 179 238 set message to change OSC address;
#X text 164 48 1 Set IP Address : network address;
#X text 164 68 2 Set Ports (sending and listening);
#X text 164 87 3 Set OSC Addresses (routing osc data;
#X text 155 26 Key Settings;
#X floatatom 43 194 5 0 0 0 - - - 0;
#X obj 455 322 select 0 1 2 3 4 5 6 7 8;
#X floatatom 495 579 5 0 0 0 - - - 0;
#X obj 495 733 *~;
#X obj 494 548 mtof;
#X obj 492 487 + 0;
#X obj 610 639 vline~;
#X floatatom 799 423 5 0 0 0 - - - 0;
#X obj 799 370 loadbang;
#X msg 450 393 0;
#X floatatom 455 258 5 0 0 0 - - - 0;
#N canvas 1099 23 623 462 oscReceive 0;
#X obj 55 184 netreceive -u -b;
#X msg 78 143 listen 0;
#X text 152 143 stop listening;
#X text 64 58 packets from network;
#X text 173 177 UDP packets \, binary output, f 13;
#X obj 45 314 print;
#X obj 45 272 oscparse;
#X text 150 114 listen on port 8000;
#X obj 177 269 oscparse;
#X obj 177 293 list trim;
#X floatatom 140 380 5 0 0 0 - - - 0;
#X text 241 267 Parse the OSC message;
#X obj 177 319 route unity;
#X obj 139 357 route trigger;
#X obj 140 407 s osctrig;
#X msg 66 115 listen 8000;
#X obj 66 84 loadbang;
#X floatatom 244 382 5 0 0 0 - - - 0;
#X obj 243 359 route tempo;
#X obj 244 409 s osctempo;
#X floatatom 339 382 5 0 0 0 - - - 0;
#X obj 338 359 route playseq;
#X obj 339 409 s oscplayseq;
#X floatatom 437 382 5 0 0 0 - - - 0;
#X obj 436 359 route colwall;
#X obj 437 409 s oscwall;
#X connect 0 0 6 0;
#X connect 0 0 8 0;
#X connect 1 0 0 0;
#X connect 6 0 5 0;
#X connect 8 0 9 0;
#X connect 9 0 12 0;
#X connect 10 0 14 0;
#X connect 12 0 13 0;
#X connect 12 0 18 0;
#X connect 12 0 21 0;
#X connect 12 0 24 0;
#X connect 13 0 10 0;
#X connect 15 0 0 0;
#X connect 16 0 15 0;
#X connect 17 0 19 0;
#X connect 18 0 17 0;
#X connect 20 0 22 0;
#X connect 21 0 20 0;
#X connect 23 0 25 0;
#X connect 24 0 23 0;
#X restore 47 142 pd oscReceive;
#X obj 11 31 tgl 15 0 empty empty empty 17 7 0 10 #fcfcfc #000000 #000000
0 1;
#X msg 12 56 \; pd dsp \$1;
#X msg 489 393 2;
#X msg 530 393 4;
#X msg 572 393 5;
#X msg 609 394 7;
#X msg 650 394 9;
#X msg 692 394 11;
#X msg 726 394 12;
#X obj 455 225 r osctrig;
#X obj 44 278 oscformat PD message;
#X msg 76 239 set PD message;
#N canvas 727 97 450 300 oscSend 0;
#X msg 158 207 disconnect;
#X obj 61 253 netsend -u -b;
#X obj 59 55 list prepend send;
#X obj 59 80 list trim;
#X msg 150 175 connect 127.0.0.1 8001;
#X obj 59 29 r oscOut;
#X text 301 163 send to port 8001;
#X msg 147 148 connect localhost 8001;
#X obj 147 108 loadbang;
#X connect 0 0 1 0;
#X connect 2 0 3 0;
#X connect 3 0 1 0;
#X connect 4 0 1 0;
#X connect 5 0 2 0;
#X connect 7 0 1 0;
#X connect 8 0 7 0;
#X restore 47 118 pd oscSend;
#X obj 44 313 s oscOut;
#X obj 1381 761 *~;
#X obj 1366 576 mtof;
#X obj 1359 285 tgl 15 0 empty empty empty 17 7 0 10 #fcfcfc #000000
#000000 0 1;
#X floatatom 1452 291 5 0 0 0 - - - 0;
#X floatatom 1366 605 5 0 0 0 - - - 0;
#X obj 1381 720 +~;
#X obj 1503 258 r osctempo;
#X obj 1452 228 loadbang;
#X obj 1359 227 r oscplayseq;
#X obj 450 653 osc~;
#X obj 502 658 osc~;
#X msg 799 397 60;
#X obj 504 631 * 1.5;
#X msg 610 587 0.85 100 \, 0 500 500;
#X text 451 198 Tirgger when picking up rotating cube...;
#X text 946 189 Trigger noise burst when running into a wall;
#X obj 1366 669 osc~;
#X text 1313 188 Sequence playback: tempo increases as more cubes get
collected by the player.;
#X obj 1409 669 osc~;
#X obj 1409 632 * 0.5;
#X obj 1630 599 vline~;
#X msg 1630 454 0.3 50 \, 0.1 80 55;
#X obj 1359 318 metro 3500;
#X obj 1374 432 mod 12;
#X floatatom 1359 407 5 0 0 0 - - - 0;
#X obj 1374 458 select 0 2 4 7 9;
#X obj 1366 546 + 0;
#X obj 1359 385 + 48;
#X obj 1359 363 random 25;
#X floatatom 1467 482 5 0 0 0 - - - 0;
#X obj 1467 524 select 0 2 4 7 9;
#X obj 1467 502 - 1;
#X msg 1500 563 -1;
#X msg 1560 574 -2;
#X msg 1409 501 0;
#X msg 1452 259 400;
#X text 1305 123 Select 0 2 7 9 attempt to follow the notes on a keyboard.
Where the white notes are in the 0th \, 2th and so on positions. repeating
the process again is to make sure no other type of notes are picked.
I noticed that sometimes with mod 12 it may choose a 5 every so often.
;
#X text 11 6 Toggle DSP;
#X obj 46 460 dac~;
#X obj 45 383 catch~ $output;
#X floatatom 91 462 5 0 0 0 - - - 0;
#X text 31 349 Master Volume Output;
#X obj 486 778 throw~ $output;
#X obj 1531 873 throw~ $output;
#X obj 1033 308 line~;
#X obj 1033 332 pow~ 4;
#X obj 1033 368 *~;
#X obj 1136 290 noise~;
#X obj 1129 333 hip~ 3000;
#X obj 1131 373 bp~ 5000 2;
#X msg 1033 284 1 \, 0 200;
#X text 1108 241 Snare Drum;
#X text 1218 346 Filters;
#X obj 969 264 bng 15 250 50 0 empty empty empty 17 7 0 10 #fcfcfc
#000000 #000000;
#X obj 963 226 r oscwall;
#X obj 1033 615 throw~ $output;
#X obj 161 331 vsl 15 128 1 100 0 0 empty empty empty 0 -9 0 10 #fcfcfc
#000000 #000000 0 1;
#X obj 1124 419 vsl 15 128 1 100 0 0 empty empty empty 0 -9 0 10 #fcfcfc
#000000 #000000 0 1;
#X obj 1632 674 vsl 15 128 1 100 0 0 empty empty empty 0 -9 0 10 #fcfcfc
#000000 #000000 0 1;
#X floatatom 1055 550 5 0 0 0 - - - 0;
#X floatatom 1531 805 5 0 0 0 - - - 0;
#X obj 45 417 /~ 5;
#X obj 1034 585 /~ 1;
#X obj 1473 820 /~ 1;
#X text 186 340 Volume Control Higher = Quieter;
#X text 1147 434 Volume Control Higher = Quieter;
#X text 1651 683 Volume Control Higher = Quieter;
#X connect 6 0 28 0;
#X connect 7 0 15 0;
#X connect 7 1 20 0;
#X connect 7 2 21 0;
#X connect 7 3 22 0;
#X connect 7 4 23 0;
#X connect 7 5 24 0;
#X connect 7 6 25 0;
#X connect 7 7 26 0;
#X connect 7 8 15 0;
#X connect 8 0 41 0;
#X connect 8 0 44 0;
#X connect 9 0 74 0;
#X connect 10 0 8 0;
#X connect 11 0 10 0;
#X connect 11 0 45 0;
#X connect 12 0 9 1;
#X connect 13 0 11 1;
#X connect 14 0 43 0;
#X connect 15 0 11 0;
#X connect 16 0 7 0;
#X connect 18 0 19 0;
#X connect 20 0 11 0;
#X connect 21 0 11 0;
#X connect 22 0 11 0;
#X connect 23 0 11 0;
#X connect 24 0 11 0;
#X connect 25 0 11 0;
#X connect 26 0 11 0;
#X connect 27 0 16 0;
#X connect 28 0 31 0;
#X connect 29 0 28 0;
#X connect 32 0 95 0;
#X connect 33 0 36 0;
#X connect 34 0 54 0;
#X connect 35 0 54 1;
#X connect 36 0 48 0;
#X connect 36 0 51 0;
#X connect 37 0 32 0;
#X connect 38 0 35 0;
#X connect 39 0 67 0;
#X connect 40 0 34 0;
#X connect 40 0 67 0;
#X connect 41 0 9 0;
#X connect 42 0 9 0;
#X connect 43 0 13 0;
#X connect 44 0 42 0;
#X connect 45 0 12 0;
#X connect 48 0 37 0;
#X connect 50 0 37 1;
#X connect 51 0 50 0;
#X connect 52 0 32 1;
#X connect 53 0 52 0;
#X connect 54 0 60 0;
#X connect 54 0 53 0;
#X connect 55 0 57 0;
#X connect 56 0 58 0;
#X connect 56 0 55 0;
#X connect 57 0 66 0;
#X connect 57 1 66 0;
#X connect 57 2 66 0;
#X connect 57 3 66 0;
#X connect 57 4 66 0;
#X connect 57 5 61 0;
#X connect 58 0 33 0;
#X connect 59 0 56 0;
#X connect 60 0 59 0;
#X connect 61 0 63 0;
#X connect 62 0 64 0;
#X connect 62 1 64 0;
#X connect 62 2 64 0;
#X connect 62 3 64 0;
#X connect 62 4 64 0;
#X connect 62 5 65 0;
#X connect 63 0 62 0;
#X connect 64 0 58 1;
#X connect 65 0 58 1;
#X connect 66 0 58 1;
#X connect 67 0 35 0;
#X connect 71 0 93 0;
#X connect 72 0 93 1;
#X connect 76 0 77 0;
#X connect 77 0 78 0;
#X connect 78 0 94 0;
#X connect 79 0 80 0;
#X connect 80 0 81 0;
#X connect 81 0 78 1;
#X connect 82 0 76 0;
#X connect 85 0 82 0;
#X connect 86 0 85 0;
#X connect 88 0 72 0;
#X connect 89 0 91 0;
#X connect 90 0 92 0;
#X connect 91 0 94 1;
#X connect 92 0 95 1;
#X connect 93 0 70 0;
#X connect 93 0 70 1;
#X connect 94 0 87 0;
#X connect 95 0 75 0;
