#N canvas 1634 584 1920 997 10;
#X text 177 277 creation arguments are OSC address;
#X text 179 238 set message to change OSC address;
#X text 164 48 1 Set IP Address : network address;
#X text 164 68 2 Set Ports (sending and listening);
#X text 164 87 3 Set OSC Addresses (routing osc data;
#X text 155 26 Key Settings;
#X floatatom 43 194 5 0 0 0 - - -;
#X obj 455 322 select 0 1 2 3 4 5 6 7 8;
#X floatatom 495 579 5 0 0 0 - - -;
#X obj 495 733 *~;
#X obj 494 548 mtof;
#X obj 492 487 + 0;
#X obj 610 639 vline~;
#X floatatom 799 423 5 0 0 0 - - -;
#X obj 799 370 loadbang;
#X msg 450 393 0;
#X floatatom 455 258 5 0 0 0 - - -;
#N canvas 865 622 1031 723 oscReceive 0;
#X obj 55 184 netreceive -u -b;
#X msg 78 143 listen 0;
#X text 152 143 stop listening;
#X text 64 58 packets from network;
#X text 173 177 UDP packets \, binary output, f 13;
#X obj 45 314 print;
#X obj 45 272 oscparse;
#X text 150 114 listen on port 8000;
#X obj 177 269 oscparse;
#X obj 177 293 list trim;
#X floatatom 140 380 5 0 0 0 - - -;
#X text 241 267 Parse the OSC message;
#X obj 177 319 route unity;
#X obj 139 357 route trigger;
#X obj 140 407 s osctrig;
#X msg 66 115 listen 8000;
#X obj 66 84 loadbang;
#X floatatom 244 382 5 0 0 0 - - -;
#X obj 243 359 route tempo;
#X obj 244 409 s osctempo;
#X floatatom 339 382 5 0 0 0 - - -;
#X obj 338 359 route playseq;
#X obj 339 409 s oscplayseq;
#X floatatom 437 382 5 0 0 0 - - -;
#X obj 436 359 route colwall;
#X obj 437 409 s oscwall;
#X floatatom 537 381 5 0 0 0 - - -;
#X obj 537 408 s oscdone;
#X obj 536 358 route done;
#X connect 0 0 6 0;
#X connect 0 0 8 0;
#X connect 1 0 0 0;
#X connect 6 0 5 0;
#X connect 8 0 9 0;
#X connect 9 0 12 0;
#X connect 10 0 14 0;
#X connect 12 0 13 0;
#X connect 12 0 18 0;
#X connect 12 0 21 0;
#X connect 12 0 24 0;
#X connect 12 0 28 0;
#X connect 13 0 10 0;
#X connect 15 0 0 0;
#X connect 16 0 15 0;
#X connect 17 0 19 0;
#X connect 18 0 17 0;
#X connect 20 0 22 0;
#X connect 21 0 20 0;
#X connect 23 0 25 0;
#X connect 24 0 23 0;
#X connect 26 0 27 0;
#X connect 28 0 26 0;
#X restore 47 142 pd oscReceive;
#X obj 11 31 tgl 15 0 empty empty empty 17 7 0 10 -262144 -1 -1 0 1
;
#X msg 12 56 \; pd dsp \$1;
#X msg 489 393 2;
#X msg 530 393 4;
#X msg 572 393 5;
#X msg 609 394 7;
#X msg 650 394 9;
#X msg 692 394 11;
#X msg 726 394 12;
#X obj 455 225 r osctrig;
#X obj 44 278 oscformat PD message;
#X msg 76 239 set PD message;
#N canvas 727 97 450 252 oscSend 0;
#X msg 158 207 disconnect;
#X obj 61 253 netsend -u -b;
#X obj 59 55 list prepend send;
#X obj 59 80 list trim;
#X msg 150 175 connect 127.0.0.1 8001;
#X obj 59 29 r oscOut;
#X text 301 163 send to port 8001;
#X msg 147 148 connect localhost 8001;
#X obj 147 108 loadbang;
#X connect 0 0 1 0;
#X connect 2 0 3 0;
#X connect 3 0 1 0;
#X connect 4 0 1 0;
#X connect 5 0 2 0;
#X connect 7 0 1 0;
#X connect 8 0 7 0;
#X restore 47 118 pd oscSend;
#X obj 44 313 s oscOut;
#X obj 1381 761 *~;
#X obj 1366 576 mtof;
#X obj 1359 285 tgl 15 0 empty empty empty 17 7 0 10 -262144 -1 -1
1 1;
#X floatatom 1452 291 5 0 0 0 - - -;
#X floatatom 1366 605 5 0 0 0 - - -;
#X obj 1381 720 +~;
#X obj 1503 258 r osctempo;
#X obj 1452 228 loadbang;
#X obj 1359 227 r oscplayseq;
#X obj 450 653 osc~;
#X obj 502 658 osc~;
#X msg 799 397 60;
#X obj 504 631 * 1.5;
#X msg 610 587 0.85 100 \, 0 500 500;
#X text 451 198 Tirgger when picking up rotating cube...;
#X text 946 189 Trigger noise burst when running into a wall;
#X obj 1366 669 osc~;
#X text 1313 188 Sequence playback: tempo increases as more cubes get
collected by the player.;
#X obj 1409 669 osc~;
#X obj 1409 632 * 0.5;
#X obj 1630 599 vline~;
#X msg 1630 454 0.3 50 \, 0.1 80 55;
#X obj 1359 318 metro 3500;
#X obj 1374 432 mod 12;
#X floatatom 1359 407 5 0 0 0 - - -;
#X obj 1374 458 select 0 2 4 7 9;
#X obj 1366 546 + 0;
#X obj 1359 385 + 48;
#X obj 1359 363 random 25;
#X floatatom 1467 482 5 0 0 0 - - -;
#X obj 1467 524 select 0 2 4 7 9;
#X obj 1467 502 - 1;
#X msg 1500 563 -1;
#X msg 1560 574 -2;
#X msg 1409 501 0;
#X msg 1452 259 400;
#X text 1305 123 Select 0 2 7 9 attempt to follow the notes on a keyboard.
Where the white notes are in the 0th \, 2th and so on positions. repeating
the process again is to make sure no other type of notes are picked.
I noticed that sometimes with mod 12 it may choose a 5 every so often.
;
#X text 11 6 Toggle DSP;
#X obj 46 460 dac~;
#X obj 45 383 catch~ $output;
#X floatatom 91 462 5 0 0 0 - - -;
#X text 31 349 Master Volume Output;
#X obj 486 778 throw~ $output;
#X obj 1531 873 throw~ $output;
#X obj 1033 308 line~;
#X obj 1033 332 pow~ 4;
#X obj 1033 368 *~;
#X obj 1136 290 noise~;
#X obj 1129 333 hip~ 3000;
#X obj 1131 373 bp~ 5000 2;
#X msg 1033 284 1 \, 0 200;
#X text 1108 241 Snare Drum;
#X text 1218 346 Filters;
#X obj 969 264 bng 15 250 50 0 empty empty empty 17 7 0 10 -262144
-1 -1;
#X obj 963 226 r oscwall;
#X obj 1033 615 throw~ $output;
#X obj 161 331 vsl 15 128 1 100 0 0 empty empty empty 0 -9 0 10 -262144
-1 -1 0 1;
#X obj 1124 419 vsl 15 128 1 100 0 0 empty empty empty 0 -9 0 10 -262144
-1 -1 0 1;
#X obj 1632 674 vsl 15 128 1 100 0 0 empty empty empty 0 -9 0 10 -262144
-1 -1 0 1;
#X floatatom 1055 550 5 0 0 0 - - -;
#X floatatom 1531 805 5 0 0 0 - - -;
#X obj 45 417 /~ 5;
#X obj 1034 585 /~ 1;
#X obj 1473 820 /~ 1;
#X text 186 340 Volume Control Higher = Quieter;
#X text 1147 434 Volume Control Higher = Quieter;
#X text 1651 683 Volume Control Higher = Quieter;
#X floatatom 951 1780 5 0 0 0 - - -;
#X obj 951 1934 *~;
#X obj 950 1749 mtof;
#X obj 948 1688 + 0;
#X obj 1066 1840 vline~;
#X floatatom 1361 1756 5 0 0 0 - - -;
#X obj 1361 1703 loadbang;
#X obj 952 1838 osc~;
#X obj 865 1069 metro 4000;
#X obj 705 882 tgl 15 0 empty empty empty 17 7 0 10 -262144 -1 -1 0
1;
#X floatatom 961 1026 5 0 0 0 - - -;
#X obj 879 1107 f;
#X obj 922 1109 + 1;
#X obj 962 864 vsl 15 128 50 500 0 0 empty empty empty 0 -9 0 10 -262144
-1 -1 0 1;
#X floatatom 834 1790 5 0 0 0 - - -;
#X msg 1361 1730 48;
#X msg 2331 1415 12;
#X msg 2249 1414 11;
#X msg 2111 1414 9;
#X msg 2181 1411 10;
#X msg 2074 1377 -9;
#X msg 2144 1378 -8;
#X msg 2224 1378 -7;
#X msg 2295 1372 -6;
#X msg 1066 1787 0.5 100 \, 0 500 500;
#X obj 756 1006 loadbang;
#X msg 756 1044 0;
#X msg 658 1378 -5;
#X msg 697 1378 -3;
#X msg 738 1378 -1;
#X msg 780 1378 1;
#X floatatom 644 1433 5 0 0 0 - - -;
#X floatatom 694 1433 5 0 0 0 - - -;
#X floatatom 741 1433 5 0 0 0 - - -;
#X floatatom 790 1431 5 0 0 0 - - -;
#X floatatom 854 1431 5 0 0 0 - - -;
#X floatatom 904 1431 5 0 0 0 - - -;
#X floatatom 951 1431 5 0 0 0 - - -;
#X floatatom 1000 1429 5 0 0 0 - - -;
#X floatatom 1059 1430 5 0 0 0 - - -;
#X floatatom 1109 1430 5 0 0 0 - - -;
#X floatatom 1156 1430 5 0 0 0 - - -;
#X floatatom 1205 1428 5 0 0 0 - - -;
#X msg 868 1376 -4;
#X msg 948 1376 0;
#X msg 990 1376 2;
#X msg 907 1376 -2;
#X msg 1073 1375 -3;
#X msg 1112 1375 -1;
#X msg 1153 1375 1;
#X msg 1195 1375 3;
#X floatatom 1253 1432 5 0 0 0 - - -;
#X floatatom 1303 1432 5 0 0 0 - - -;
#X floatatom 1350 1432 5 0 0 0 - - -;
#X floatatom 1399 1430 5 0 0 0 - - -;
#X msg 1267 1377 -2;
#X msg 1306 1377 0;
#X msg 1347 1377 2;
#X msg 1389 1377 4;
#X msg 806 1045 216.5;
#X obj 1247 1031 f;
#X obj 1250 980 metro 500;
#X floatatom 1453 1434 5 0 0 0 - - -;
#X floatatom 1503 1434 5 0 0 0 - - -;
#X floatatom 1550 1434 5 0 0 0 - - -;
#X floatatom 1599 1432 5 0 0 0 - - -;
#X floatatom 1649 1433 5 0 0 0 - - -;
#X floatatom 1699 1433 5 0 0 0 - - -;
#X floatatom 1746 1433 5 0 0 0 - - -;
#X floatatom 1795 1431 5 0 0 0 - - -;
#X floatatom 1845 1433 5 0 0 0 - - -;
#X floatatom 1895 1433 5 0 0 0 - - -;
#X floatatom 1942 1433 5 0 0 0 - - -;
#X floatatom 1991 1431 5 0 0 0 - - -;
#X msg 1467 1379 -1;
#X msg 1506 1379 1;
#X msg 1547 1379 3;
#X msg 1589 1379 5;
#X msg 1663 1378 0;
#X msg 1702 1378 2;
#X msg 1743 1378 4;
#X msg 1785 1378 6;
#X msg 1859 1378 1;
#X msg 1898 1378 3;
#X msg 1939 1378 5;
#X msg 1981 1378 7;
#X obj 1032 1187 select 0 1 2 3 4 5 6 7 8 9 10 11 12 13 14 15 16 17
18 19 20 21 22 23 24 25 26 27 28 29 30 31 32 33 34 35 36 37 38 39 40
41 42 43;
#X obj 1290 1033 - 4;
#X obj 1934 1172 select 44 45 46 47 48 49 50 51 52 53 54 55 56 57 58
59 60 61 62 63;
#X text 645 970 Resets settings on start;
#X text 590 885 Click to Start!;
#X text 1004 896 Manual Tempo Control;
#X text 1264 946 Speeds up tempo as sound plays;
#X text 693 1790 MIDI Debug Output;
#X text 1425 1737 48 should be note C4;
#X text 2066 1129 Ending Section;
#X text 1131 1159 Repeating Section;
#X obj 1357 1838 vsl 15 128 0.5 3 0 0 empty empty empty 0 -9 0 10 -262144
-1 -1 0 1;
#X floatatom 1147 1969 5 0 0 0 - - -;
#X obj 949 1986 /~ 1;
#X text 1404 1914 Volume Control;
#X msg 1358 2009 1000;
#X msg 1356 1980 1;
#X text 1410 1977 Click to reset to default volume;
#X text 1415 2010 Click to mute;
#X obj 957 2033 throw~ $output;
#X text 864 831 Plays when all the balls are picked up;
#X obj 848 865 r oscdone;
#X connect 6 0 28 0;
#X connect 7 0 15 0;
#X connect 7 1 20 0;
#X connect 7 2 21 0;
#X connect 7 3 22 0;
#X connect 7 4 23 0;
#X connect 7 5 24 0;
#X connect 7 6 25 0;
#X connect 7 7 26 0;
#X connect 7 8 15 0;
#X connect 8 0 41 0;
#X connect 8 0 44 0;
#X connect 9 0 74 0;
#X connect 10 0 8 0;
#X connect 11 0 10 0;
#X connect 11 0 45 0;
#X connect 12 0 9 1;
#X connect 13 0 11 1;
#X connect 14 0 43 0;
#X connect 15 0 11 0;
#X connect 16 0 7 0;
#X connect 18 0 19 0;
#X connect 20 0 11 0;
#X connect 21 0 11 0;
#X connect 22 0 11 0;
#X connect 23 0 11 0;
#X connect 24 0 11 0;
#X connect 25 0 11 0;
#X connect 26 0 11 0;
#X connect 27 0 16 0;
#X connect 28 0 31 0;
#X connect 29 0 28 0;
#X connect 32 0 95 0;
#X connect 33 0 36 0;
#X connect 34 0 54 0;
#X connect 35 0 54 1;
#X connect 36 0 48 0;
#X connect 36 0 51 0;
#X connect 37 0 32 0;
#X connect 38 0 35 0;
#X connect 39 0 67 0;
#X connect 40 0 34 0;
#X connect 40 0 67 0;
#X connect 41 0 9 0;
#X connect 42 0 9 0;
#X connect 43 0 13 0;
#X connect 44 0 42 0;
#X connect 45 0 12 0;
#X connect 48 0 37 0;
#X connect 50 0 37 1;
#X connect 51 0 50 0;
#X connect 52 0 32 1;
#X connect 53 0 52 0;
#X connect 54 0 60 0;
#X connect 54 0 53 0;
#X connect 55 0 57 0;
#X connect 56 0 58 0;
#X connect 56 0 55 0;
#X connect 57 0 66 0;
#X connect 57 1 66 0;
#X connect 57 2 66 0;
#X connect 57 3 66 0;
#X connect 57 4 66 0;
#X connect 57 5 61 0;
#X connect 58 0 33 0;
#X connect 59 0 56 0;
#X connect 60 0 59 0;
#X connect 61 0 63 0;
#X connect 62 0 64 0;
#X connect 62 1 64 0;
#X connect 62 2 64 0;
#X connect 62 3 64 0;
#X connect 62 4 64 0;
#X connect 62 5 65 0;
#X connect 63 0 62 0;
#X connect 64 0 58 1;
#X connect 65 0 58 1;
#X connect 66 0 58 1;
#X connect 67 0 35 0;
#X connect 71 0 93 0;
#X connect 72 0 93 1;
#X connect 76 0 77 0;
#X connect 77 0 78 0;
#X connect 78 0 94 0;
#X connect 79 0 80 0;
#X connect 80 0 81 0;
#X connect 81 0 78 1;
#X connect 82 0 76 0;
#X connect 85 0 82 0;
#X connect 86 0 85 0;
#X connect 88 0 72 0;
#X connect 89 0 91 0;
#X connect 90 0 92 0;
#X connect 91 0 94 1;
#X connect 92 0 95 1;
#X connect 93 0 70 0;
#X connect 93 0 70 1;
#X connect 94 0 87 0;
#X connect 95 0 75 0;
#X connect 99 0 106 0;
#X connect 100 0 198 0;
#X connect 101 0 99 0;
#X connect 102 0 101 0;
#X connect 102 0 113 0;
#X connect 102 0 123 0;
#X connect 103 0 100 1;
#X connect 104 0 102 1;
#X connect 105 0 114 0;
#X connect 106 0 100 0;
#X connect 107 0 110 0;
#X connect 108 0 107 0;
#X connect 108 0 160 0;
#X connect 108 0 158 0;
#X connect 108 0 125 0;
#X connect 109 0 107 1;
#X connect 110 0 111 0;
#X connect 110 0 185 0;
#X connect 110 0 187 0;
#X connect 111 0 110 1;
#X connect 112 0 109 0;
#X connect 114 0 104 0;
#X connect 115 0 102 0;
#X connect 116 0 102 0;
#X connect 117 0 102 0;
#X connect 118 0 102 0;
#X connect 119 0 102 0;
#X connect 120 0 102 0;
#X connect 121 0 102 0;
#X connect 122 0 102 0;
#X connect 123 0 103 0;
#X connect 124 0 158 0;
#X connect 124 0 125 0;
#X connect 125 0 110 0;
#X connect 126 0 130 0;
#X connect 127 0 131 0;
#X connect 128 0 132 0;
#X connect 129 0 133 0;
#X connect 130 0 102 0;
#X connect 131 0 102 0;
#X connect 132 0 102 0;
#X connect 133 0 102 0;
#X connect 134 0 102 0;
#X connect 135 0 102 0;
#X connect 136 0 102 0;
#X connect 137 0 102 0;
#X connect 138 0 102 0;
#X connect 139 0 102 0;
#X connect 140 0 102 0;
#X connect 141 0 102 0;
#X connect 142 0 134 0;
#X connect 143 0 136 0;
#X connect 144 0 137 0;
#X connect 145 0 135 0;
#X connect 146 0 138 0;
#X connect 147 0 139 0;
#X connect 148 0 140 0;
#X connect 149 0 141 0;
#X connect 150 0 102 0;
#X connect 151 0 102 0;
#X connect 152 0 102 0;
#X connect 153 0 102 0;
#X connect 154 0 150 0;
#X connect 155 0 151 0;
#X connect 156 0 152 0;
#X connect 157 0 153 0;
#X connect 158 0 159 0;
#X connect 159 0 109 0;
#X connect 159 0 186 0;
#X connect 160 0 159 0;
#X connect 161 0 102 0;
#X connect 162 0 102 0;
#X connect 163 0 102 0;
#X connect 164 0 102 0;
#X connect 165 0 102 0;
#X connect 166 0 102 0;
#X connect 167 0 102 0;
#X connect 168 0 102 0;
#X connect 169 0 102 0;
#X connect 170 0 102 0;
#X connect 171 0 102 0;
#X connect 172 0 102 0;
#X connect 173 0 161 0;
#X connect 174 0 162 0;
#X connect 175 0 163 0;
#X connect 176 0 164 0;
#X connect 177 0 165 0;
#X connect 178 0 166 0;
#X connect 179 0 167 0;
#X connect 180 0 168 0;
#X connect 181 0 169 0;
#X connect 182 0 170 0;
#X connect 183 0 171 0;
#X connect 184 0 172 0;
#X connect 185 0 126 0;
#X connect 185 1 127 0;
#X connect 185 2 128 0;
#X connect 185 3 129 0;
#X connect 185 4 126 0;
#X connect 185 5 127 0;
#X connect 185 6 128 0;
#X connect 185 7 129 0;
#X connect 185 8 142 0;
#X connect 185 9 145 0;
#X connect 185 10 143 0;
#X connect 185 11 144 0;
#X connect 185 12 142 0;
#X connect 185 13 145 0;
#X connect 185 14 143 0;
#X connect 185 15 144 0;
#X connect 185 16 146 0;
#X connect 185 17 147 0;
#X connect 185 18 148 0;
#X connect 185 19 149 0;
#X connect 185 20 146 0;
#X connect 185 21 147 0;
#X connect 185 22 148 0;
#X connect 185 23 149 0;
#X connect 185 24 154 0;
#X connect 185 25 155 0;
#X connect 185 26 156 0;
#X connect 185 27 157 0;
#X connect 185 28 154 0;
#X connect 185 29 155 0;
#X connect 185 30 156 0;
#X connect 185 31 157 0;
#X connect 185 32 173 0;
#X connect 185 33 174 0;
#X connect 185 34 175 0;
#X connect 185 35 176 0;
#X connect 185 36 177 0;
#X connect 185 37 178 0;
#X connect 185 38 179 0;
#X connect 185 39 180 0;
#X connect 185 40 181 0;
#X connect 185 41 182 0;
#X connect 185 42 183 0;
#X connect 185 43 184 0;
#X connect 186 0 159 1;
#X connect 187 0 119 0;
#X connect 187 0 117 0;
#X connect 187 1 119 0;
#X connect 187 1 117 0;
#X connect 187 2 119 0;
#X connect 187 2 117 0;
#X connect 187 3 119 0;
#X connect 187 3 117 0;
#X connect 187 4 120 0;
#X connect 187 4 118 0;
#X connect 187 5 120 0;
#X connect 187 5 118 0;
#X connect 187 6 120 0;
#X connect 187 6 118 0;
#X connect 187 7 120 0;
#X connect 187 7 118 0;
#X connect 187 8 121 0;
#X connect 187 8 116 0;
#X connect 187 9 121 0;
#X connect 187 9 116 0;
#X connect 187 10 121 0;
#X connect 187 10 116 0;
#X connect 187 11 121 0;
#X connect 187 11 116 0;
#X connect 187 12 122 0;
#X connect 187 12 115 0;
#X connect 187 13 122 0;
#X connect 187 13 115 0;
#X connect 187 14 122 0;
#X connect 187 14 115 0;
#X connect 187 15 122 0;
#X connect 187 15 115 0;
#X connect 187 16 122 0;
#X connect 187 16 115 0;
#X connect 187 17 122 0;
#X connect 187 17 115 0;
#X connect 187 18 122 0;
#X connect 187 18 115 0;
#X connect 187 19 122 0;
#X connect 187 19 115 0;
#X connect 196 0 197 0;
#X connect 197 0 198 1;
#X connect 198 0 204 0;
#X connect 200 0 197 0;
#X connect 201 0 197 0;
#X connect 206 0 125 0;
#X connect 206 0 158 0;
#X connect 206 0 107 0;
#X connect 206 0 160 0;
